<svg xmlns="http://www.w3.org/2000/svg" viewBox="0 0 1440 320"><path fill="#7380ec" fill-opacity="1" d="M0,192L34.3,192C68.6,192,137,192,206,186.7C274.3,181,343,171,411,186.7C480,203,549,245,617,245.3C685.7,245,754,203,823,192C891.4,181,960,203,1029,192C1097.1,181,1166,139,1234,128C1302.9,117,1371,139,1406,149.3L1440,160L1440,320L1405.7,320C1371.4,320,1303,320,1234,320C1165.7,320,1097,320,1029,320C960,320,891,320,823,320C754.3,320,686,320,617,320C548.6,320,480,320,411,320C342.9,320,274,320,206,320C137.1,320,69,320,34,320L0,320Z"></path></svg>